<svg width="49" height="49" viewBox="0 0 49 49" fill="none" xmlns="http://www.w3.org/2000/svg">
<rect x="0.328125" y="0.470215" width="48" height="48" rx="6" fill="#0066FF"/>
<g clip-path="url(#clip0_578_5879)">
<path d="M27.3103 21.7823C27.3103 21.0193 27.124 20.3095 26.7514 19.653C26.361 18.9965 25.8376 18.473 25.181 18.0827C24.5068 17.71 23.797 17.5237 23.0517 17.5237C22.3065 17.5237 21.5967 17.71 20.9225 18.0827C20.2659 18.473 19.7425 18.9965 19.3521 19.653C18.9795 20.3095 18.7932 21.0193 18.7932 21.7823C18.7932 22.5453 18.9795 23.255 19.3521 23.9116C19.7425 24.5681 20.2659 25.0915 20.9225 25.4819C21.5967 25.8545 22.3065 26.0408 23.0517 26.0408C23.797 26.0408 24.5068 25.8545 25.181 25.4819C25.8376 25.0915 26.361 24.5681 26.7514 23.9116C27.124 23.255 27.3103 22.5453 27.3103 21.7823ZM26.4852 26.1207C25.527 26.9014 24.3825 27.3007 23.0517 27.3184C21.4903 27.2829 20.1861 26.7417 19.1392 25.6948C18.0923 24.6479 17.5511 23.3438 17.5156 21.7823C17.5511 20.2208 18.0923 18.9166 19.1392 17.8697C20.1861 16.8228 21.4903 16.2816 23.0517 16.2462C24.6132 16.2816 25.9174 16.8228 26.9643 17.8697C28.0112 18.9166 28.5524 20.2208 28.5879 21.7823C28.5701 23.1131 28.1709 24.2576 27.3901 25.2157L30.9567 28.7823C31.2051 29.0839 31.2051 29.3856 30.9567 29.6872C30.655 29.9356 30.3534 29.9356 30.0517 29.6872L26.4852 26.1207Z" fill="white"/>
</g>
<defs>
<clipPath id="clip0_578_5879">
<rect width="14" height="14" fill="white" transform="matrix(1 0 0 -1 17.3281 30.0601)"/>
</clipPath>
</defs>
</svg>
