<svg width="48" height="48" viewBox="0 0 48 48" fill="none" xmlns="http://www.w3.org/2000/svg">
<rect width="48" height="48" rx="6" fill="#0066FF"/>
<g clip-path="url(#clip0_578_5571)">
<path d="M26.9802 21.3126C26.9802 20.5496 26.7939 19.8398 26.4213 19.1833C26.0309 18.5267 25.5075 18.0033 24.8509 17.6129C24.1767 17.2403 23.4669 17.054 22.7217 17.054C21.9764 17.054 21.2667 17.2403 20.5924 17.6129C19.9359 18.0033 19.4124 18.5267 19.022 19.1833C18.6494 19.8398 18.4631 20.5496 18.4631 21.3126C18.4631 22.0755 18.6494 22.7853 19.022 23.4418C19.4124 24.0984 19.9359 24.6218 20.5924 25.0122C21.2667 25.3848 21.9764 25.5711 22.7217 25.5711C23.4669 25.5711 24.1767 25.3848 24.8509 25.0122C25.5075 24.6218 26.0309 24.0984 26.4213 23.4418C26.7939 22.7853 26.9802 22.0755 26.9802 21.3126ZM26.1551 25.651C25.197 26.4317 24.0525 26.8309 22.7217 26.8487C21.1602 26.8132 19.856 26.272 18.8091 25.2251C17.7622 24.1782 17.221 22.874 17.1855 21.3126C17.221 19.7511 17.7622 18.4469 18.8091 17.4C19.856 16.3531 21.1602 15.8119 22.7217 15.7764C24.2831 15.8119 25.5873 16.3531 26.6342 17.4C27.6811 18.4469 28.2223 19.7511 28.2578 21.3126C28.24 22.6434 27.8408 23.7878 27.0601 24.746L30.6266 28.3126C30.875 28.6142 30.875 28.9158 30.6266 29.2175C30.325 29.4659 30.0233 29.4659 29.7217 29.2175L26.1551 25.651Z" fill="white"/>
</g>
<defs>
<clipPath id="clip0_578_5571">
<rect width="14" height="14" fill="white" transform="matrix(1 0 0 -1 17 29.5901)"/>
</clipPath>
</defs>
</svg>
