<svg width="98" height="74" viewBox="0 0 98 74" fill="none" xmlns="http://www.w3.org/2000/svg">
<rect x="1.08984" y="1.05005" width="95.8" height="71.8" rx="3.5" stroke="#C20041"/>
<g clip-path="url(#clip0_578_6837)">
<path d="M68.0023 35.8673C68.0023 39.3408 67.1492 42.5095 65.443 45.3736C63.7977 48.2376 61.482 50.5533 58.4961 52.3205C55.5102 54.0267 52.3414 54.8798 48.9898 54.8798C45.6383 54.8798 42.4695 54.0267 39.4836 52.3205C36.4977 50.5533 34.182 48.2376 32.5367 45.3736C30.8305 42.5095 29.9773 39.3408 29.9773 35.8673C29.9773 32.3939 30.8305 29.2251 32.5367 26.3611C34.182 23.497 36.4977 21.1814 39.4836 19.4142C42.4695 17.708 45.6383 16.8548 48.9898 16.8548C52.3414 16.8548 55.5102 17.708 58.4961 19.4142C61.482 21.1814 63.7977 23.497 65.443 26.3611C67.1492 29.2251 68.0023 32.3939 68.0023 35.8673ZM25.5898 35.8673C25.6508 40.133 26.6867 44.033 28.6977 47.5673C30.7695 51.1017 33.6336 53.9658 37.2898 56.1595C41.007 58.2314 44.907 59.2673 48.9898 59.2673C53.0727 59.2673 56.9727 58.2314 60.6898 56.1595C64.3461 53.9658 67.2102 51.1017 69.282 47.5673C71.293 44.033 72.3289 40.133 72.3898 35.8673C72.3289 31.6017 71.293 27.7017 69.282 24.1673C67.2102 20.633 64.3461 17.7689 60.6898 15.5751C56.9727 13.5033 53.0727 12.4673 48.9898 12.4673C44.907 12.4673 41.007 13.5033 37.2898 15.5751C33.6336 17.7689 30.7695 20.633 28.6977 24.1673C26.6867 27.7017 25.6508 31.6017 25.5898 35.8673ZM59.2273 35.8673C59.2273 35.258 58.9836 34.7095 58.4961 34.222L48.2586 24.7158C47.5883 24.1064 46.7961 23.9845 45.882 24.3501C45.0898 24.7767 44.6633 25.447 44.6023 26.3611V45.3736C44.6633 46.2876 45.0898 46.958 45.882 47.3845C46.7961 47.7501 47.5883 47.6283 48.2586 47.0189L58.4961 37.5126C58.9836 37.0251 59.2273 36.4767 59.2273 35.8673Z" fill="white"/>
</g>
<defs>
<clipPath id="clip0_578_6837">
<rect width="46.8" height="49" fill="white" transform="matrix(1 0 0 -1 25.5898 60.55)"/>
</clipPath>
</defs>
</svg>
