<svg width="17" height="17" viewBox="0 0 17 17" fill="none" xmlns="http://www.w3.org/2000/svg">
<g clip-path="url(#clip0_578_8456)">
<path d="M10.1905 6.81328L6.81719 10.1866C6.38385 9.75328 6.11719 9.15995 6.11719 8.49995C6.11719 7.17995 7.18385 6.11328 8.50385 6.11328C9.16385 6.11328 9.75719 6.37995 10.1905 6.81328Z" stroke="#171717" stroke-linecap="round" stroke-linejoin="round"/>
<path d="M12.3799 4.34682C11.2132 3.46682 9.8799 2.98682 8.4999 2.98682C6.14656 2.98682 3.95323 4.37348 2.42656 6.77348C1.82656 7.71348 1.82656 9.29348 2.42656 10.2335C2.95323 11.0602 3.56656 11.7735 4.23323 12.3468" stroke="#171717" stroke-linecap="round" stroke-linejoin="round"/>
<path d="M6.11719 13.52C6.87719 13.84 7.68385 14.0133 8.50385 14.0133C10.8572 14.0133 13.0505 12.6266 14.5772 10.2266C15.1772 9.28662 15.1772 7.70662 14.5772 6.76662C14.3572 6.41995 14.1172 6.09329 13.8705 5.78662" stroke="#171717" stroke-linecap="round" stroke-linejoin="round"/>
<path d="M10.8409 8.9668C10.6676 9.9068 9.90094 10.6735 8.96094 10.8468" stroke="#171717" stroke-linecap="round" stroke-linejoin="round"/>
<path d="M6.81594 10.1865L1.83594 15.1665" stroke="#171717" stroke-linecap="round" stroke-linejoin="round"/>
<path d="M15.1675 1.8335L10.1875 6.8135" stroke="#171717" stroke-linecap="round" stroke-linejoin="round"/>
</g>
<defs>
<clipPath id="clip0_578_8456">
<rect width="16" height="16" fill="white" transform="translate(0.5 0.5)"/>
</clipPath>
</defs>
</svg>
