<svg width="46" height="46" viewBox="0 0 46 46" fill="none" xmlns="http://www.w3.org/2000/svg">
<rect x="0.5" y="0.5" width="45" height="45" rx="15" fill="#3A3A3A"/>
<g clip-path="url(#clip0_578_8461)">
<path d="M32.7431 22.57C32.6931 22.06 32.2631 21.68 31.7531 21.68H24.2031C23.6531 21.68 23.2031 22.13 23.2031 22.68V24.39C23.2031 24.94 23.6531 25.39 24.2031 25.39H28.7131C28.6031 26.31 28.0031 27.7 26.6731 28.63C25.8231 29.22 24.6931 29.63 23.2031 29.63C23.1331 29.63 23.0731 29.63 23.0031 29.62C20.4531 29.54 18.2931 27.83 17.5131 25.48C17.3031 24.85 17.1831 24.19 17.1831 23.5C17.1831 22.81 17.3031 22.14 17.5031 21.52C17.5631 21.34 17.6331 21.16 17.7131 20.98C18.6331 18.91 20.6431 17.45 23.0031 17.38C23.0631 17.37 23.1331 17.37 23.2031 17.37C24.6331 17.37 25.7031 17.84 26.4531 18.36C26.8431 18.63 27.3631 18.57 27.7031 18.24L29.0931 16.88C29.5331 16.45 29.4931 15.72 28.9931 15.36C27.4031 14.19 25.4631 13.5 23.2031 13.5C23.1331 13.5 23.0731 13.5 23.0031 13.51C19.1731 13.58 15.8831 15.8 14.2731 19.01C13.5931 20.37 13.2031 21.89 13.2031 23.5C13.2031 25.11 13.5931 26.63 14.2731 27.99H14.2831C15.8931 31.2 19.1831 33.42 23.0031 33.49C23.0731 33.5 23.1331 33.5 23.2031 33.5C25.9031 33.5 28.1731 32.61 29.8231 31.08C31.7131 29.33 32.8031 26.77 32.8031 23.72C32.8031 23.29 32.7831 22.92 32.7431 22.57Z" fill="white"/>
</g>
<defs>
<clipPath id="clip0_578_8461">
<rect width="24" height="24" fill="white" transform="translate(11.5 11.5)"/>
</clipPath>
</defs>
</svg>
