<svg width="70" height="71" viewBox="0 0 70 71" fill="none" xmlns="http://www.w3.org/2000/svg">
<g clip-path="url(#clip0_578_6869)">
<g clip-path="url(#clip1_578_6869)">
<g clip-path="url(#clip2_578_6869)">
<path d="M46.8007 0.787672L46.2165 0.563792C45.6974 0.364849 45.1164 0.648573 44.967 1.17383L37.6406 26.9449L38.7347 27.3642L51.2624 3.5865C51.5178 3.10181 51.2885 2.50754 50.7695 2.3086L50.1852 2.08472L46.8007 0.787672Z" fill="#0066FF"/>
<path d="M17.7392 4.21683L31.1924 27.5049L32.2679 27.0453L23.9362 1.56896C23.7664 1.04963 23.1746 0.788009 22.6637 1.00623L18.1816 2.9214C17.6707 3.13975 17.4649 3.74211 17.7392 4.21683Z" fill="#0066FF"/>
<path d="M3.15583 19.0462C2.65995 18.7936 2.04969 19.0174 1.84558 19.5265L1.61859 20.0928L0.292214 23.4031L0.065225 23.9694C-0.138748 24.4785 0.153567 25.0482 0.692855 25.1923L25.96 31.9492L26.3887 30.8776L3.15583 19.0462Z" fill="#0066FF"/>
<path d="M42.6055 31.0077L43.0752 32.059L69.1251 23.9112C69.6561 23.7451 69.9237 23.1663 69.7005 22.6667L67.7419 18.2826C67.5187 17.783 66.9026 17.5818 66.4174 17.85L42.6055 31.0077Z" fill="#0066FF"/>
<path d="M39.4818 30.7858L52.8514 19.7114C53.2781 19.358 53.2971 18.7207 52.8923 18.3435L51.1361 16.7066C50.7339 16.3318 50.0889 16.3777 49.7466 16.8054L38.9531 30.2887L39.4818 30.7858Z" fill="#0066FF"/>
<path d="M31.01 30.4358L19.7275 17.4084C19.3674 16.9925 18.7187 16.9723 18.3322 17.3648L16.6576 19.0657C16.2709 19.4585 16.3164 20.092 16.7553 20.4281L30.5017 30.9535L31.01 30.4358Z" fill="#0066FF"/>
<path d="M35.3173 28.8963L36.7601 11.8807C36.8062 11.3374 36.3617 10.8743 35.8044 10.8849L33.3911 10.9309C32.8341 10.9416 32.4085 11.4209 32.4757 11.9618L34.5842 28.9089L35.3173 28.8963Z" fill="#0066FF"/>
<path d="M28.4925 36.0317L11.907 37.9053C11.3538 37.9678 10.8666 37.5492 10.8586 37.0048L10.8243 34.6774C10.8162 34.1292 11.297 33.6959 11.8549 33.7485L28.4848 35.3137L28.4925 36.0317Z" fill="#0066FF"/>
<path d="M41.2736 35.9126L41.2656 35.1951L58.7557 33.2802C59.3107 33.2195 59.7972 33.6421 59.8009 34.1883L59.8172 36.5745C59.8209 37.1185 59.3437 37.5468 58.79 37.4967L41.2736 35.9126Z" fill="#0066FF"/>
<path d="M46.8007 0.787672L46.2165 0.563792C45.6974 0.364849 45.1164 0.648573 44.967 1.17383L37.6406 26.9449L38.7347 27.3642L51.2624 3.5865C51.5178 3.10181 51.2885 2.50754 50.7695 2.3086L50.1852 2.08472L46.8007 0.787672Z" fill="#0066FF"/>
<path d="M17.7392 4.21683L31.1924 27.5049L32.2679 27.0453L23.9362 1.56896C23.7664 1.04963 23.1746 0.788009 22.6637 1.00623L18.1816 2.9214C17.6707 3.13975 17.4649 3.74211 17.7392 4.21683Z" fill="#0066FF"/>
<path d="M3.15583 19.0462C2.65995 18.7936 2.04969 19.0174 1.84558 19.5265L1.61859 20.0928L0.292214 23.4031L0.065225 23.9694C-0.138748 24.4785 0.153567 25.0482 0.692855 25.1923L25.96 31.9492L26.3887 30.8776L3.15583 19.0462Z" fill="#0066FF"/>
<path d="M42.6055 31.0077L43.0752 32.059L69.1251 23.9112C69.6561 23.7451 69.9237 23.1663 69.7005 22.6667L67.7419 18.2826C67.5187 17.783 66.9026 17.5818 66.4174 17.85L42.6055 31.0077Z" fill="#0066FF"/>
<path d="M39.4818 30.7858L52.8514 19.7114C53.2781 19.358 53.2971 18.7207 52.8923 18.3435L51.1361 16.7066C50.7339 16.3318 50.0889 16.3777 49.7466 16.8054L38.9531 30.2887L39.4818 30.7858Z" fill="#0066FF"/>
<path d="M31.01 30.4358L19.7275 17.4084C19.3674 16.9925 18.7187 16.9723 18.3322 17.3648L16.6576 19.0657C16.2709 19.4585 16.3164 20.092 16.7553 20.4281L30.5017 30.9535L31.01 30.4358Z" fill="#0066FF"/>
<path d="M35.3173 28.8963L36.7601 11.8807C36.8062 11.3374 36.3617 10.8743 35.8044 10.8849L33.3911 10.9309C32.8341 10.9416 32.4085 11.4209 32.4757 11.9618L34.5842 28.9089L35.3173 28.8963Z" fill="#0066FF"/>
<path d="M28.4925 36.0317L11.907 37.9053C11.3538 37.9678 10.8666 37.5492 10.8586 37.0048L10.8243 34.6774C10.8162 34.1292 11.297 33.6959 11.8549 33.7485L28.4848 35.3137L28.4925 36.0317Z" fill="#0066FF"/>
<path d="M41.2736 35.9126L41.2656 35.1951L58.7557 33.2802C59.3107 33.2195 59.7972 33.6421 59.8009 34.1883L59.8172 36.5745C59.8209 37.1185 59.3437 37.5468 58.79 37.4967L41.2736 35.9126Z" fill="#0066FF"/>
<path d="M47.421 70.1964L46.8408 70.4303C46.3253 70.6381 45.7393 70.3644 45.5805 69.8417L37.793 44.2003L38.8795 43.7622L51.8319 67.3212C52.0959 67.8014 51.8774 68.3995 51.3619 68.6073L50.7818 68.8412L47.421 70.1964Z" fill="#0066FF"/>
<path d="M18.3053 67.266L31.3386 43.7507L32.4223 44.1918L24.5489 69.8071C24.3884 70.3293 23.8014 70.6012 23.2868 70.3916L18.771 68.5536C18.2562 68.3442 18.0396 67.7453 18.3053 67.266Z" fill="#0066FF"/>
<path d="M3.45665 52.6892C2.96532 52.9501 2.3512 52.737 2.13799 52.2315L1.90094 51.669L0.515448 48.3821L0.278399 47.8196C0.06533 47.3142 0.347446 46.7395 0.883977 46.5861L26.0259 39.3967L26.4738 40.4607L3.45665 52.6892Z" fill="#0066FF"/>
<path d="M42.6877 40.0528L43.1383 38.9937L69.3305 46.6932C69.8644 46.8501 70.1424 47.4242 69.9281 47.9275L68.0485 52.3446C67.8343 52.848 67.222 53.0598 66.7318 52.7999L42.6877 40.0528Z" fill="#0066FF"/>
<path d="M39.5664 40.3284L53.1327 51.1716C53.5656 51.5176 53.5962 52.1545 53.1983 52.5386L51.4717 54.2054C51.0763 54.5871 50.4306 54.5522 50.0805 54.1304L39.0469 40.8345L39.5664 40.3284Z" fill="#0066FF"/>
<path d="M31.1044 40.8232L20.0575 54.0422C19.7049 54.464 19.0566 54.4954 18.6631 54.1097L16.9582 52.4378C16.5646 52.0518 16.5986 51.4175 17.0315 51.0739L30.587 40.3142L31.1044 40.8232Z" fill="#0066FF"/>
<path d="M35.437 42.2887L37.185 59.2769C37.2408 59.8192 36.8047 60.2899 36.2472 60.2888L33.8335 60.2843C33.2763 60.2832 32.8421 59.8113 32.8997 59.2693L34.7038 42.2886L35.437 42.2887Z" fill="#0066FF"/>
</g>
</g>
</g>
<defs>
<clipPath id="clip0_578_6869">
<rect width="70" height="70" fill="white" transform="translate(0 0.5)"/>
</clipPath>
<clipPath id="clip1_578_6869">
<rect width="70" height="70" fill="white" transform="translate(0 0.5)"/>
</clipPath>
<clipPath id="clip2_578_6869">
<rect width="70" height="70" fill="white" transform="translate(0 0.5)"/>
</clipPath>
</defs>
</svg>
