<svg width="25" height="25" viewBox="0 0 25 25" fill="none" xmlns="http://www.w3.org/2000/svg">
<g clip-path="url(#clip0_578_5929)">
<path d="M9.057 2.5504H15.6025C15.8146 2.58071 15.9358 2.70192 15.9661 2.91404V4.73222H8.69336V2.91404C8.72366 2.70192 8.84487 2.58071 9.057 2.5504ZM6.51154 2.91404V4.73222H3.60245C2.78427 4.76252 2.10245 5.0504 1.557 5.59586C1.01154 6.14131 0.723662 6.82313 0.693359 7.64131V19.2777C0.723662 20.0959 1.01154 20.7777 1.557 21.3231C2.10245 21.8686 2.78427 22.1565 3.60245 22.1868H21.057C21.8752 22.1565 22.557 21.8686 23.1025 21.3231C23.6479 20.7777 23.9358 20.0959 23.9661 19.2777V7.64131C23.9358 6.82313 23.6479 6.14131 23.1025 5.59586C22.557 5.0504 21.8752 4.76252 21.057 4.73222H18.1479V2.91404C18.1176 2.18677 17.8752 1.58071 17.4206 1.09586C16.9358 0.641312 16.3297 0.398888 15.6025 0.368585H9.057C8.32972 0.398888 7.72366 0.641312 7.23881 1.09586C6.78427 1.58071 6.54184 2.18677 6.51154 2.91404ZM14.1934 9.0504L17.8297 12.6868C18.254 13.2019 18.254 13.7171 17.8297 14.2322L14.1934 17.8686C13.6782 18.2928 13.1631 18.2928 12.6479 17.8686C12.2237 17.3534 12.2237 16.8383 12.6479 16.3231L14.4206 14.5504H7.60245C6.93578 14.4898 6.57215 14.1262 6.51154 13.4595C6.57215 12.7928 6.93578 12.4292 7.60245 12.3686H14.4206L12.6479 10.5959C12.2237 10.0807 12.2237 9.56556 12.6479 9.0504C13.1631 8.62616 13.6782 8.62616 14.1934 9.0504Z" fill="#0066FF"/>
</g>
<defs>
<clipPath id="clip0_578_5929">
<rect width="24" height="24" fill="white" transform="matrix(1 0 0 -1 0.330078 24.0503)"/>
</clipPath>
</defs>
</svg>
