<svg width="25" height="25" viewBox="0 0 25 25" fill="none" xmlns="http://www.w3.org/2000/svg">
<g clip-path="url(#clip0_578_5901)">
<path d="M9.70739 3.06041H16.2528C16.465 3.09072 16.5862 3.21193 16.6165 3.42405V5.24223H9.34375V3.42405C9.37405 3.21193 9.49527 3.09072 9.70739 3.06041ZM7.16193 3.42405V5.24223H4.25284C3.43466 5.27253 2.75284 5.56041 2.20739 6.10587C1.66193 6.65132 1.37405 7.33314 1.34375 8.15132V19.7877C1.37405 20.6059 1.66193 21.2877 2.20739 21.8331C2.75284 22.3786 3.43466 22.6665 4.25284 22.6968H21.7074C22.5256 22.6665 23.2074 22.3786 23.7528 21.8331C24.2983 21.2877 24.5862 20.6059 24.6165 19.7877V8.15132C24.5862 7.33314 24.2983 6.65132 23.7528 6.10587C23.2074 5.56041 22.5256 5.27253 21.7074 5.24223H18.7983V3.42405C18.768 2.69678 18.5256 2.09072 18.071 1.60587C17.5862 1.15132 16.9801 0.908898 16.2528 0.878595H9.70739C8.98011 0.908898 8.37405 1.15132 7.8892 1.60587C7.43466 2.09072 7.19224 2.69678 7.16193 3.42405ZM14.8438 9.56041L18.4801 13.1968C18.9044 13.7119 18.9044 14.2271 18.4801 14.7422L14.8438 18.3786C14.3286 18.8028 13.8134 18.8028 13.2983 18.3786C12.8741 17.8634 12.8741 17.3483 13.2983 16.8331L15.071 15.0604H8.25284C7.58617 14.9998 7.22254 14.6362 7.16193 13.9695C7.22254 13.3028 7.58617 12.9392 8.25284 12.8786H15.071L13.2983 11.1059C12.8741 10.5907 12.8741 10.0756 13.2983 9.56041C13.8134 9.13617 14.3286 9.13617 14.8438 9.56041Z" fill="#0066FF"/>
</g>
<defs>
<clipPath id="clip0_578_5901">
<rect width="24" height="24" fill="white" transform="matrix(1 0 0 -1 0.980469 24.5603)"/>
</clipPath>
</defs>
</svg>
