<svg width="21" height="23" viewBox="0 0 21 23" fill="none" xmlns="http://www.w3.org/2000/svg">
<g clip-path="url(#clip0_578_6937)">
<path d="M13.6536 18.2138C14.0326 18.3492 14.3845 18.2815 14.7094 18.0107L20.5565 12.4857C20.746 12.2961 20.8408 12.0659 20.8408 11.795C20.8408 11.5242 20.746 11.294 20.5565 11.1044L14.7094 5.57941C14.3845 5.30858 14.0326 5.24087 13.6536 5.37629C13.2746 5.56587 13.0716 5.86379 13.0445 6.27004V9.19504H1.35016C0.971172 9.19504 0.659863 9.31691 0.41623 9.56066C0.172598 9.80441 0.0507812 10.1159 0.0507812 10.495V13.095C0.0507812 13.4742 0.172598 13.7857 0.41623 14.0294C0.659863 14.2732 0.971172 14.395 1.35016 14.395H13.0445V17.32C13.0716 17.7263 13.2746 18.0242 13.6536 18.2138Z" fill="white"/>
</g>
<defs>
<clipPath id="clip0_578_6937">
<rect width="20.79" height="22" fill="white" transform="matrix(1 0 0 -1 0.0507812 22.7949)"/>
</clipPath>
</defs>
</svg>
