<svg width="25" height="25" viewBox="0 0 25 25" fill="none" xmlns="http://www.w3.org/2000/svg">
<g clip-path="url(#clip0_578_5894)">
<path d="M9.38707 3.06041H15.9325C16.1447 3.09072 16.2659 3.21193 16.2962 3.42405V5.24223H9.02344V3.42405C9.05374 3.21193 9.17495 3.09072 9.38707 3.06041ZM6.84162 3.42405V5.24223H3.93253C3.11435 5.27253 2.43253 5.56041 1.88707 6.10587C1.34162 6.65132 1.05374 7.33314 1.02344 8.15132V19.7877C1.05374 20.6059 1.34162 21.2877 1.88707 21.8331C2.43253 22.3786 3.11435 22.6665 3.93253 22.6968H21.3871C22.2053 22.6665 22.8871 22.3786 23.4325 21.8331C23.978 21.2877 24.2659 20.6059 24.2962 19.7877V8.15132C24.2659 7.33314 23.978 6.65132 23.4325 6.10587C22.8871 5.56041 22.2053 5.27253 21.3871 5.24223H18.478V3.42405C18.4477 2.69678 18.2053 2.09072 17.7507 1.60587C17.2659 1.15132 16.6598 0.908898 15.9325 0.878595H9.38707C8.6598 0.908898 8.05374 1.15132 7.56889 1.60587C7.11435 2.09072 6.87192 2.69678 6.84162 3.42405ZM14.5234 9.56041L18.1598 13.1968C18.584 13.7119 18.584 14.2271 18.1598 14.7422L14.5234 18.3786C14.0083 18.8028 13.4931 18.8028 12.978 18.3786C12.5537 17.8634 12.5537 17.3483 12.978 16.8331L14.7507 15.0604H7.93253C7.26586 14.9998 6.90223 14.6362 6.84162 13.9695C6.90223 13.3028 7.26586 12.9392 7.93253 12.8786H14.7507L12.978 11.1059C12.5537 10.5907 12.5537 10.0756 12.978 9.56041C13.4931 9.13617 14.0083 9.13617 14.5234 9.56041Z" fill="#0066FF"/>
</g>
<defs>
<clipPath id="clip0_578_5894">
<rect width="24" height="24" fill="white" transform="matrix(1 0 0 -1 0.660156 24.5603)"/>
</clipPath>
</defs>
</svg>
