<svg width="16" height="16" viewBox="0 0 16 16" fill="none" xmlns="http://www.w3.org/2000/svg">
<path d="M12.668 7.33317H8.66797V3.33317C8.66797 3.15636 8.59773 2.98679 8.47271 2.86177C8.34768 2.73674 8.17811 2.6665 8.0013 2.6665C7.82449 2.6665 7.65492 2.73674 7.5299 2.86177C7.40487 2.98679 7.33464 3.15636 7.33464 3.33317V7.33317H3.33464C3.15782 7.33317 2.98826 7.40341 2.86323 7.52843C2.73821 7.65346 2.66797 7.82303 2.66797 7.99984C2.66797 8.17665 2.73821 8.34622 2.86323 8.47124C2.98826 8.59627 3.15782 8.6665 3.33464 8.6665H7.33464V12.6665C7.33464 12.8433 7.40487 13.0129 7.5299 13.1379C7.65492 13.2629 7.82449 13.3332 8.0013 13.3332C8.17811 13.3332 8.34768 13.2629 8.47271 13.1379C8.59773 13.0129 8.66797 12.8433 8.66797 12.6665V8.6665H12.668C12.8448 8.6665 13.0143 8.59627 13.1394 8.47124C13.2644 8.34622 13.3346 8.17665 13.3346 7.99984C13.3346 7.82303 13.2644 7.65346 13.1394 7.52843C13.0143 7.40341 12.8448 7.33317 12.668 7.33317Z" fill="#222930"/>
</svg>
