<svg width="21" height="22" viewBox="0 0 21 22" fill="none" xmlns="http://www.w3.org/2000/svg">
<g clip-path="url(#clip0_578_6982)">
<path d="M20.6394 11.1502C20.906 10.8569 20.906 10.5635 20.6394 10.2702L14.8794 4.51021C14.586 4.24355 14.2927 4.24355 13.9994 4.51021C13.7327 4.80355 13.7327 5.09688 13.9994 5.39021L18.6394 10.0702H0.999375C0.599375 10.0969 0.386042 10.3102 0.359375 10.7102C0.386042 11.1102 0.599375 11.3235 0.999375 11.3502H18.6394L13.9994 16.0302C13.7327 16.3235 13.7327 16.6169 13.9994 16.9102C14.2927 17.1769 14.586 17.1769 14.8794 16.9102L20.6394 11.1502Z" fill="#0066FF"/>
</g>
<defs>
<clipPath id="clip0_578_6982">
<rect width="20.8" height="21" fill="white" transform="matrix(1 0 0 -1 0.199219 21.2702)"/>
</clipPath>
</defs>
</svg>
