<svg width="25" height="25" viewBox="0 0 25 25" fill="none" xmlns="http://www.w3.org/2000/svg">
<g clip-path="url(#clip0_578_5943)">
<path d="M9.70739 2.5504H16.2528C16.465 2.58071 16.5862 2.70192 16.6165 2.91404V4.73222H9.34375V2.91404C9.37405 2.70192 9.49527 2.58071 9.70739 2.5504ZM7.16193 2.91404V4.73222H4.25284C3.43466 4.76252 2.75284 5.0504 2.20739 5.59586C1.66193 6.14131 1.37405 6.82313 1.34375 7.64131V19.2777C1.37405 20.0959 1.66193 20.7777 2.20739 21.3231C2.75284 21.8686 3.43466 22.1565 4.25284 22.1868H21.7074C22.5256 22.1565 23.2074 21.8686 23.7528 21.3231C24.2983 20.7777 24.5862 20.0959 24.6165 19.2777V7.64131C24.5862 6.82313 24.2983 6.14131 23.7528 5.59586C23.2074 5.0504 22.5256 4.76252 21.7074 4.73222H18.7983V2.91404C18.768 2.18677 18.5256 1.58071 18.071 1.09586C17.5862 0.641312 16.9801 0.398888 16.2528 0.368585H9.70739C8.98011 0.398888 8.37405 0.641312 7.8892 1.09586C7.43466 1.58071 7.19224 2.18677 7.16193 2.91404ZM14.8438 9.0504L18.4801 12.6868C18.9044 13.2019 18.9044 13.7171 18.4801 14.2322L14.8438 17.8686C14.3286 18.2928 13.8134 18.2928 13.2983 17.8686C12.8741 17.3534 12.8741 16.8383 13.2983 16.3231L15.071 14.5504H8.25284C7.58617 14.4898 7.22254 14.1262 7.16193 13.4595C7.22254 12.7928 7.58617 12.4292 8.25284 12.3686H15.071L13.2983 10.5959C12.8741 10.0807 12.8741 9.56556 13.2983 9.0504C13.8134 8.62616 14.3286 8.62616 14.8438 9.0504Z" fill="#0066FF"/>
</g>
<defs>
<clipPath id="clip0_578_5943">
<rect width="24" height="24" fill="white" transform="matrix(1 0 0 -1 0.980469 24.0503)"/>
</clipPath>
</defs>
</svg>
