<svg width="25" height="25" viewBox="0 0 25 25" fill="none" xmlns="http://www.w3.org/2000/svg">
<g clip-path="url(#clip0_578_7740)">
<path d="M9.05504 2.64025H15.6005C15.8126 2.67055 15.9338 2.79176 15.9641 3.00388V4.82207H8.69141V3.00388C8.72171 2.79176 8.84292 2.67055 9.05504 2.64025ZM6.50959 3.00388V4.82207H3.6005C2.78232 4.85237 2.1005 5.14025 1.55504 5.6857C1.00959 6.23116 0.721709 6.91297 0.691406 7.73116V19.3675C0.721709 20.1857 1.00959 20.8675 1.55504 21.413C2.1005 21.9584 2.78232 22.2463 3.6005 22.2766H21.055C21.8732 22.2463 22.555 21.9584 23.1005 21.413C23.646 20.8675 23.9338 20.1857 23.9641 19.3675V7.73116C23.9338 6.91297 23.646 6.23116 23.1005 5.6857C22.555 5.14025 21.8732 4.85237 21.055 4.82207H18.146V3.00388C18.1156 2.27661 17.8732 1.67055 17.4187 1.1857C16.9338 0.731156 16.3278 0.488732 15.6005 0.458429H9.05504C8.32777 0.488732 7.72171 0.731156 7.23686 1.1857C6.78232 1.67055 6.53989 2.27661 6.50959 3.00388ZM14.1914 9.14025L17.8278 12.7766C18.252 13.2918 18.252 13.8069 17.8278 14.3221L14.1914 17.9584C13.6763 18.3827 13.1611 18.3827 12.646 17.9584C12.2217 17.4433 12.2217 16.9281 12.646 16.413L14.4187 14.6402H7.6005C6.93383 14.5796 6.57019 14.216 6.50959 13.5493C6.57019 12.8827 6.93383 12.519 7.6005 12.4584H14.4187L12.646 10.6857C12.2217 10.1706 12.2217 9.6554 12.646 9.14025C13.1611 8.716 13.6763 8.716 14.1914 9.14025Z" fill="#0066FF"/>
</g>
<defs>
<clipPath id="clip0_578_7740">
<rect width="24" height="24" fill="white" transform="matrix(1 0 0 -1 0.328125 24.1401)"/>
</clipPath>
</defs>
</svg>
