<svg width="21" height="22" viewBox="0 0 21 22" fill="none" xmlns="http://www.w3.org/2000/svg">
<g clip-path="url(#clip0_578_7203)">
<path d="M20.53 10.9502C20.7967 10.6568 20.7967 10.3635 20.53 10.0702L14.77 4.31016C14.4767 4.04349 14.1833 4.04349 13.89 4.31016C13.6233 4.60349 13.6233 4.89682 13.89 5.19016L18.53 9.87016H0.89C0.49 9.89682 0.276667 10.1102 0.25 10.5102C0.276667 10.9102 0.49 11.1235 0.89 11.1502H18.53L13.89 15.8302C13.6233 16.1235 13.6233 16.4168 13.89 16.7102C14.1833 16.9768 14.4767 16.9768 14.77 16.7102L20.53 10.9502Z" fill="white"/>
</g>
<defs>
<clipPath id="clip0_578_7203">
<rect width="20.8" height="21" fill="white" transform="matrix(1 0 0 -1 0.0898438 21.0701)"/>
</clipPath>
</defs>
</svg>
