<svg width="25" height="25" viewBox="0 0 25 25" fill="none" xmlns="http://www.w3.org/2000/svg">
<g clip-path="url(#clip0_578_7712)">
<path d="M9.70739 3.16051H16.2528C16.465 3.19081 16.5862 3.31203 16.6165 3.52415V5.34233H9.34375V3.52415C9.37405 3.31203 9.49527 3.19081 9.70739 3.16051ZM7.16193 3.52415V5.34233H4.25284C3.43466 5.37263 2.75284 5.66051 2.20739 6.20597C1.66193 6.75142 1.37405 7.43324 1.34375 8.25142V19.8878C1.37405 20.706 1.66193 21.3878 2.20739 21.9332C2.75284 22.4787 3.43466 22.7666 4.25284 22.7969H21.7074C22.5256 22.7666 23.2074 22.4787 23.7528 21.9332C24.2983 21.3878 24.5862 20.706 24.6165 19.8878V8.25142C24.5862 7.43324 24.2983 6.75142 23.7528 6.20597C23.2074 5.66051 22.5256 5.37263 21.7074 5.34233H18.7983V3.52415C18.768 2.79687 18.5256 2.19081 18.071 1.70597C17.5862 1.25142 16.9801 1.009 16.2528 0.978693H9.70739C8.98011 1.009 8.37405 1.25142 7.8892 1.70597C7.43466 2.19081 7.19224 2.79687 7.16193 3.52415ZM14.8438 9.66051L18.4801 13.2969C18.9044 13.812 18.9044 14.3272 18.4801 14.8423L14.8438 18.4787C14.3286 18.9029 13.8134 18.9029 13.2983 18.4787C12.8741 17.9635 12.8741 17.4484 13.2983 16.9332L15.071 15.1605H8.25284C7.58617 15.0999 7.22254 14.7363 7.16193 14.0696C7.22254 13.4029 7.58617 13.0393 8.25284 12.9787H15.071L13.2983 11.206C12.8741 10.6908 12.8741 10.1757 13.2983 9.66051C13.8134 9.23627 14.3286 9.23627 14.8438 9.66051Z" fill="#0066FF"/>
</g>
<defs>
<clipPath id="clip0_578_7712">
<rect width="24" height="24" fill="white" transform="matrix(1 0 0 -1 0.980469 24.6604)"/>
</clipPath>
</defs>
</svg>
