<svg width="14" height="17" viewBox="0 0 14 17" fill="none" xmlns="http://www.w3.org/2000/svg">
<g clip-path="url(#clip0_578_6953)">
<path d="M3.10692 12.5261L5.84457 8.45005L3.10692 4.374V12.5261ZM4.29324 14.2904H9.7381L7.00046 10.2143L4.29324 14.2904ZM8.18677 8.45005L10.894 12.5261V4.374L8.18677 8.45005ZM9.7381 2.60975H4.29324L7.00046 6.68579L9.7381 2.60975ZM1.16016 2.12305C1.18044 1.71748 1.32239 1.37274 1.58601 1.08883C1.86992 0.825208 2.21466 0.683256 2.62023 0.662977H11.3807C11.7863 0.683256 12.131 0.825208 12.4149 1.08883C12.6785 1.37274 12.8205 1.71748 12.8408 2.12305V14.777C12.8205 15.1826 12.6785 15.5274 12.4149 15.8113C12.131 16.0749 11.7863 16.2168 11.3807 16.2371H2.62023C2.21466 16.2168 1.86992 16.0749 1.58601 15.8113C1.32239 15.5274 1.18044 15.1826 1.16016 14.777V2.12305Z" fill="#0066FF"/>
</g>
<defs>
<clipPath id="clip0_578_6953">
<rect width="14" height="16" fill="white" transform="matrix(1 0 0 -1 0 16.4501)"/>
</clipPath>
</defs>
</svg>
