<svg width="399" height="139" viewBox="0 0 399 139" fill="none" xmlns="http://www.w3.org/2000/svg">
<path d="M268.172 110.196C268.098 108.758 267.783 107.524 267.228 106.492C266.672 105.423 265.931 104.557 265.006 103.893C264.08 103.193 263.006 102.677 261.784 102.345C260.599 102.014 259.321 101.848 257.951 101.848C257.026 101.848 256.044 101.94 255.007 102.124C253.971 102.308 253.008 102.622 252.119 103.064C251.267 103.506 250.545 104.114 249.953 104.888C249.397 105.662 249.12 106.621 249.12 107.763C249.12 109.053 249.471 110.104 250.175 110.915C250.916 111.689 251.86 112.334 253.008 112.85C254.193 113.329 255.544 113.734 257.063 114.066C258.581 114.361 260.118 114.693 261.673 115.061C263.228 115.393 264.765 115.817 266.283 116.333C267.802 116.812 269.135 117.494 270.283 118.378C271.468 119.226 272.412 120.332 273.115 121.695C273.856 123.022 274.226 124.718 274.226 126.782C274.226 128.883 273.782 130.707 272.893 132.255C272.004 133.766 270.838 135.019 269.394 136.015C267.987 137.01 266.376 137.747 264.561 138.226C262.747 138.742 260.895 139 259.007 139C256.674 139 254.47 138.742 252.397 138.226C250.36 137.747 248.564 136.973 247.009 135.904C245.454 134.798 244.176 133.379 243.176 131.647C242.213 129.878 241.658 127.74 241.51 125.234L247.175 124.736C247.324 128.311 248.434 130.891 250.508 132.476C252.582 134.024 255.341 134.798 258.785 134.798C260.044 134.798 261.247 134.651 262.395 134.356C263.58 134.061 264.617 133.6 265.506 132.974C266.431 132.347 267.172 131.536 267.727 130.541C268.283 129.546 268.561 128.348 268.561 126.948C268.561 125.584 268.19 124.497 267.45 123.686C266.746 122.838 265.802 122.156 264.617 121.64C263.469 121.087 262.136 120.645 260.618 120.313C259.099 119.982 257.563 119.65 256.007 119.318C254.452 118.986 252.915 118.599 251.397 118.157C249.879 117.715 248.527 117.107 247.342 116.333C246.194 115.559 245.25 114.582 244.509 113.403C243.806 112.223 243.454 110.712 243.454 108.869C243.454 106.952 243.861 105.294 244.676 103.893C245.528 102.493 246.62 101.332 247.953 100.41C249.323 99.4889 250.841 98.807 252.508 98.3647C254.211 97.8856 255.915 97.646 257.618 97.646C259.655 97.646 261.58 97.8856 263.395 98.3647C265.209 98.8439 266.82 99.581 268.227 100.576C269.635 101.571 270.801 102.843 271.727 104.391C272.653 105.939 273.264 107.782 273.56 109.92L268.172 110.196Z" fill="#828282"/>
<path d="M279.78 111.578H284.335V138.005H279.78V111.578ZM279.78 98.6411H284.335V103.838H279.78V98.6411Z" fill="#828282"/>
<path d="M291.229 111.578H295.45V114.895H295.561C296.413 113.826 297.468 112.905 298.727 112.131C300.023 111.32 301.449 110.915 303.004 110.915C303.708 110.915 304.43 111.007 305.171 111.191C305.948 111.339 306.689 111.597 307.392 111.965C308.096 112.297 308.726 112.758 309.281 113.347C309.873 113.937 310.355 114.656 310.725 115.503C311.207 114.84 311.762 114.232 312.392 113.679C313.021 113.126 313.688 112.647 314.391 112.242C315.095 111.836 315.817 111.523 316.558 111.302C317.335 111.044 318.076 110.915 318.779 110.915C319.853 110.915 320.909 111.062 321.945 111.357C322.982 111.615 323.908 112.113 324.723 112.85C325.537 113.55 326.185 114.527 326.667 115.78C327.185 117.033 327.445 118.618 327.445 120.534V138.005H322.89V120.313C322.89 118.655 322.519 117.383 321.779 116.499C321.038 115.577 319.853 115.116 318.224 115.116C317.52 115.116 316.78 115.227 316.002 115.448C315.224 115.632 314.502 115.946 313.836 116.388C313.206 116.83 312.669 117.402 312.225 118.102C311.818 118.802 311.614 119.65 311.614 120.645V138.005H307.059V120.313C307.059 118.655 306.689 117.383 305.948 116.499C305.208 115.577 304.023 115.116 302.393 115.116C301.69 115.116 300.949 115.227 300.171 115.448C299.394 115.632 298.672 115.946 298.005 116.388C297.376 116.83 296.839 117.402 296.394 118.102C295.987 118.802 295.783 119.65 295.783 120.645V138.005H291.229V111.578Z" fill="#828282"/>
<path d="M289.048 8.46321C289.162 6.88341 290.409 4.28803 291.882 2.82107C293.582 1.01558 295.849 0 298.116 0C300.27 0 302.537 1.01558 304.351 2.82107C305.938 4.40087 307.185 6.88341 307.185 8.46321C307.185 10.043 306.051 12.6384 304.691 14.2182C302.764 16.475 300.95 17.2649 298.116 17.2649C295.283 17.2649 293.469 16.475 291.655 14.2182C290.182 12.6384 289.048 10.043 289.048 8.46321Z" fill="white"/>
<path d="M0 13.5411V7.33478V1.12843H34.0057L34.5724 67.1414L37.5196 62.0635C39.1065 59.2425 46.4744 46.6041 53.8423 33.8528C61.2102 21.1016 68.4648 8.57605 72.5455 1.12843H79.9134C87.1679 1.12843 87.2813 1.12843 86.0344 3.72381C85.2409 5.07792 73.679 25.1639 35.706 90.3871L21.5369 90.2742V13.5411H0Z" fill="white"/>
<path d="M136.023 90.2742V45.7013V1.12843H149.058L148.832 43.783C148.832 67.1414 148.718 87.2275 148.605 88.243C148.491 89.9357 147.358 90.2742 136.023 90.2742Z" fill="white"/>
<path d="M317.386 90.2742V45.7013V1.12843H329.855V31.596H346.858C359.667 31.596 363.861 31.9345 363.861 32.9501C363.861 33.74 363.974 41.0748 364.201 49.3123C364.314 57.437 364.654 64.4332 364.994 64.7718C365.334 65.1103 369.868 57.8883 384.831 32.1602L391.972 31.8217C396.053 31.7088 399 32.0473 399 32.7244C399 33.4015 394.693 41.0748 389.478 49.8765C384.378 58.7911 375.083 74.5891 368.962 85.1963C362.841 95.6907 355.586 108.329 347.991 121.87H341.19C336.543 121.87 334.389 121.419 334.389 120.403C334.389 119.726 338.243 112.617 351.392 90.2742V45.1371L330.422 45.7013L329.855 90.2742H317.386Z" fill="white"/>
<path d="M81.6136 35.7712C83.7673 34.417 87.848 32.7244 90.6818 31.9345C93.5156 31.2574 98.0497 30.9189 100.884 31.1446C103.717 31.4831 108.591 32.9501 111.652 34.417C114.826 35.884 118.68 38.7051 120.38 40.8491C121.967 42.8803 124.347 46.8298 125.708 49.6508C127.068 52.6976 128.088 57.0984 128.088 66.5772H104.851C86.9412 66.5772 81.6136 66.9158 81.6136 67.9314C81.6136 68.7213 83.5406 71.2038 85.921 73.4606C88.5281 75.9432 91.8153 77.7487 94.6491 78.3129C98.0497 78.9899 100.43 78.6514 104.284 77.0716C107.118 75.8303 110.178 74.0249 111.085 72.8964C112.332 71.5423 114.486 70.9781 119.36 71.091C123.667 71.091 125.821 71.5423 125.821 72.4451C125.821 73.235 124.347 76.056 122.42 78.6514C120.607 81.3596 117.093 84.7449 114.826 86.2119C112.445 87.6788 108.478 89.4843 105.984 90.2742C103.377 91.0641 98.7298 91.5155 95.2159 91.177C91.8153 90.8384 86.9412 89.5972 84.4474 88.3559C81.9537 87.1146 77.873 83.8422 75.3793 81.0211C72.8855 78.2 70.1651 74.0249 69.4849 71.5423C68.6915 69.1726 68.0114 64.2075 68.0114 60.5966C68.0114 57.0984 68.6915 52.4719 69.4849 50.4407C70.2784 48.5224 72.4321 44.9114 74.3591 42.4289C76.1727 40.0592 79.4599 37.0124 81.6136 35.7712Z" fill="white"/>
<path d="M170.255 36.3354C172.862 34.6427 177.396 32.7244 180.23 31.9345C183.064 31.1446 187.598 30.9189 190.432 31.2574C193.266 31.596 197.573 32.7244 200.067 33.8528C202.561 34.9813 206.301 37.5766 208.455 39.6078C210.495 41.7518 213.216 45.4756 214.463 47.9582C215.823 50.4407 217.07 55.293 217.41 58.6782C217.75 62.9663 217.296 66.8029 215.936 71.091C214.463 75.379 212.195 78.8771 208.682 82.3752C205.205 85.8357 201.389 88.243 197.233 89.5972C192.926 91.0641 189.072 91.5155 184.764 91.177C181.364 90.8384 176.489 89.5972 173.996 88.3559C171.502 87.0018 167.535 83.955 165.268 81.3596C162.887 78.8771 160.507 75.7175 159.827 74.4762C159.147 73.235 158.24 69.624 157.56 66.5772C156.804 62.8158 156.804 59.1296 157.56 55.5186C158.24 52.5847 160.28 47.8453 162.094 44.7986C164.021 41.8647 167.648 38.1409 170.255 36.3354Z" fill="white"/>
<path d="M239.513 34.8684C241.78 33.74 245.634 32.273 248.015 31.7088C250.282 31.1446 254.022 30.9189 256.176 31.1446C258.33 31.4831 262.184 32.3859 264.564 33.0629C267.058 33.8528 271.139 36.2225 273.632 38.4794C276.24 40.6234 279.413 44.6857 280.774 47.5068C282.247 50.215 283.381 53.3746 283.381 54.3902C283.381 56.0829 282.361 56.4214 277.146 56.4214C271.252 56.4214 270.799 56.1957 268.645 52.4719C267.398 50.3279 264.678 47.5068 262.751 46.2655C260.484 44.9114 256.97 44.0087 253.909 44.0087C250.849 44.0087 247.335 44.9114 245.181 46.2655C243.141 47.5068 240.42 50.215 239.173 52.1334C237.7 54.6159 236.906 57.7755 236.906 61.4993C237.02 64.9974 237.813 68.4956 239.06 70.5267C240.193 72.3322 243.594 75.1533 246.655 76.6202C250.962 78.6514 253.116 79.1028 256.176 78.4257C258.33 77.9744 261.504 76.9588 263.317 76.056C265.018 75.1533 267.398 72.6707 268.645 70.5267C270.799 66.8029 271.252 66.5772 277.146 66.5772C282.361 66.5772 283.381 66.9158 283.381 68.4956C283.381 69.624 281.794 73.235 279.98 76.3946C277.94 80.0055 274.653 83.7293 271.819 85.6477C269.098 87.3403 264.904 89.4843 262.411 90.2742C259.917 91.0641 255.043 91.5155 251.642 91.177C248.242 90.9513 243.594 89.8228 241.44 88.8073C239.287 87.7917 235.433 85.0835 233.052 82.7138C230.559 80.3441 227.498 76.1689 226.251 73.3478C224.664 69.8497 223.984 65.9002 223.984 60.9351C223.984 55.5186 224.664 52.2462 226.591 48.5224C227.951 45.7013 230.559 41.9775 232.145 40.2849C233.846 38.4794 237.133 36.1097 239.513 34.8684Z" fill="white"/>
<path d="M291.089 61.725C290.975 45.927 291.429 32.7244 291.882 32.273C292.449 31.8217 295.509 31.596 304.351 32.1602V89.71L291.315 90.2742L291.089 61.725Z" fill="white"/>
<path d="M83.9937 51.2306C85.3539 49.4251 87.961 46.9426 89.888 45.927C91.9283 44.9114 95.4423 44.0087 97.7093 44.0087C100.09 44.0087 103.944 45.0243 106.211 46.1527C108.591 47.3939 111.425 49.8765 112.445 51.7948C113.579 53.7131 114.485 55.5186 114.485 55.8572C114.485 56.1957 107.118 56.4214 98.0494 56.4214C88.9812 56.4214 81.6133 56.0828 81.6133 55.6315C81.6133 55.0673 82.6335 53.1489 83.9937 51.2306Z" fill="black"/>
<path d="M172.295 52.2462C173.542 50.215 176.262 47.5068 178.189 46.2655C180.456 44.9114 183.97 44.0087 187.031 44.0087C190.545 44.0087 193.379 44.7986 195.986 46.4912C198.139 47.9582 200.86 50.3279 201.993 51.9077C203.127 53.4875 204.374 56.7599 204.714 59.2424C205.167 62.6277 204.601 65.1103 202.674 68.8341C200.747 72.5579 198.706 74.5891 194.966 76.5074C190.772 78.6514 188.958 78.9899 184.764 78.3129C181.817 77.8615 178.303 76.1688 176.376 74.5891C174.562 73.0093 172.408 70.301 171.615 68.6084C170.708 66.8029 170.028 63.3048 170.028 60.7094C170.028 57.8883 170.935 54.3902 172.295 52.2462Z" fill="black"/>
</svg>
