<svg width="175" height="61" viewBox="0 0 175 61" fill="none" xmlns="http://www.w3.org/2000/svg">
<path d="M117.62 48.3596C117.587 47.7288 117.449 47.1869 117.206 46.734C116.962 46.2649 116.637 45.8848 116.231 45.5937C115.825 45.2864 115.354 45.0599 114.818 44.9143C114.298 44.7688 113.738 44.696 113.137 44.696C112.731 44.696 112.301 44.7364 111.846 44.8173C111.391 44.8982 110.969 45.0357 110.579 45.2297C110.205 45.4238 109.889 45.6907 109.629 46.0304C109.385 46.3701 109.263 46.7906 109.263 47.292C109.263 47.8582 109.418 48.3191 109.726 48.675C110.051 49.0147 110.465 49.2977 110.969 49.5242C111.488 49.7344 112.081 49.9124 112.747 50.0579C113.413 50.1873 114.087 50.3329 114.769 50.4947C115.451 50.6402 116.125 50.8262 116.791 51.0527C117.457 51.263 118.042 51.5622 118.545 51.9504C119.065 52.3224 119.479 52.8077 119.788 53.4061C120.113 53.9884 120.275 54.7325 120.275 55.6382C120.275 56.5602 120.08 57.3609 119.69 58.0402C119.301 58.7034 118.789 59.2533 118.156 59.69C117.538 60.1268 116.832 60.4503 116.036 60.6605C115.24 60.887 114.428 61.0002 113.6 61.0002C112.577 61.0002 111.61 60.887 110.701 60.6605C109.807 60.4503 109.02 60.1106 108.338 59.6415C107.656 59.1563 107.095 58.5335 106.657 57.7733C106.234 56.9969 105.991 56.0588 105.926 54.9589L108.411 54.7405C108.476 56.3095 108.963 57.4417 109.872 58.1373C110.782 58.8166 111.992 59.1563 113.502 59.1563C114.055 59.1563 114.582 59.0916 115.086 58.9622C115.606 58.8328 116.06 58.6306 116.45 58.3556C116.856 58.0806 117.181 57.7248 117.425 57.2881C117.668 56.8514 117.79 56.3257 117.79 55.711C117.79 55.1126 117.628 54.6354 117.303 54.2796C116.994 53.9075 116.58 53.6083 116.06 53.3819C115.557 53.1392 114.972 52.9451 114.306 52.7996C113.64 52.654 112.966 52.5084 112.284 52.3628C111.602 52.2173 110.928 52.0474 110.262 51.8533C109.596 51.6592 109.004 51.3924 108.484 51.0527C107.98 50.713 107.566 50.2844 107.241 49.7668C106.933 49.2492 106.778 48.586 106.778 47.7773C106.778 46.9362 106.957 46.2083 107.314 45.5937C107.688 44.979 108.167 44.4695 108.752 44.0652C109.353 43.6608 110.019 43.3616 110.75 43.1675C111.497 42.9572 112.244 42.8521 112.991 42.8521C113.884 42.8521 114.729 42.9572 115.525 43.1675C116.32 43.3777 117.027 43.7012 117.644 44.1379C118.261 44.5747 118.773 45.1327 119.179 45.812C119.585 46.4914 119.853 47.3001 119.983 48.2383L117.62 48.3596Z" fill="#828282"/>
<path d="M122.711 48.9661H124.709V60.5635H122.711V48.9661ZM122.711 43.2888H124.709V45.5694H122.711V43.2888Z" fill="#828282"/>
<path d="M127.732 48.9661H129.584V50.4219H129.633C130.006 49.9528 130.469 49.5484 131.021 49.2088C131.59 48.8529 132.215 48.675 132.897 48.675C133.206 48.675 133.522 48.7154 133.847 48.7963C134.188 48.861 134.513 48.9742 134.822 49.136C135.13 49.2815 135.406 49.4837 135.65 49.7425C135.91 50.0013 136.121 50.3167 136.283 50.6888C136.495 50.3976 136.738 50.1307 137.014 49.8881C137.29 49.6455 137.583 49.4352 137.891 49.2573C138.2 49.0794 138.517 48.9419 138.841 48.8448C139.183 48.7316 139.507 48.675 139.816 48.675C140.287 48.675 140.75 48.7397 141.205 48.8691C141.659 48.9823 142.065 49.2007 142.423 49.5242C142.78 49.8315 143.064 50.2601 143.275 50.8101C143.503 51.36 143.616 52.0555 143.616 52.8966V60.5635H141.619V52.7996C141.619 52.0717 141.456 51.5137 141.132 51.1255C140.807 50.7211 140.287 50.5189 139.572 50.5189C139.264 50.5189 138.939 50.5674 138.598 50.6645C138.257 50.7454 137.94 50.8828 137.648 51.0769C137.372 51.271 137.136 51.5218 136.941 51.8291C136.763 52.1364 136.673 52.5084 136.673 52.9451V60.5635H134.676V52.7996C134.676 52.0717 134.513 51.5137 134.188 51.1255C133.863 50.7211 133.344 50.5189 132.629 50.5189C132.32 50.5189 131.996 50.5674 131.655 50.6645C131.314 50.7454 130.997 50.8828 130.704 51.0769C130.428 51.271 130.193 51.5218 129.998 51.8291C129.819 52.1364 129.73 52.5084 129.73 52.9451V60.5635H127.732V48.9661Z" fill="#828282"/>
<path d="M126.776 3.71407C126.825 3.02078 127.372 1.8818 128.018 1.23802C128.764 0.445688 129.759 0 130.753 0C131.697 0 132.692 0.445688 133.487 1.23802C134.183 1.93132 134.73 3.02078 134.73 3.71407C134.73 4.40736 134.233 5.54634 133.636 6.23964C132.791 7.23006 131.996 7.5767 130.753 7.5767C129.51 7.5767 128.714 7.23006 127.919 6.23964C127.273 5.54634 126.776 4.40736 126.776 3.71407Z" fill="white"/>
<path d="M0 5.94251V3.21886V0.495209H14.9148L15.1634 29.465L16.456 27.2365C17.152 25.9985 20.3835 20.4521 23.6151 14.8563C26.8466 9.26041 30.0284 3.76359 31.8182 0.495209H35.0497C38.2315 0.495209 38.2812 0.495209 37.7344 1.63419C37.3864 2.22844 32.3153 11.0432 15.6605 39.6663L9.44602 39.6167V5.94251H0Z" fill="white"/>
<path d="M59.6591 39.6167V20.056V0.495209H65.3764L65.277 19.2141C65.277 29.465 65.2273 38.2797 65.1776 38.7254C65.1278 39.4682 64.6307 39.6167 59.6591 39.6167Z" fill="white"/>
<path d="M139.205 39.6167V20.056V0.495209H144.673V13.8659H152.131C157.749 13.8659 159.588 14.0144 159.588 14.4601C159.588 14.8068 159.638 18.0256 159.737 21.6406C159.787 25.2062 159.936 28.2765 160.085 28.425C160.234 28.5736 162.223 25.4042 168.786 14.1135L171.918 13.9649C173.707 13.9154 175 14.0639 175 14.3611C175 14.6582 173.111 18.0256 170.824 21.8883C168.587 25.8004 164.51 32.7333 161.825 37.3883C159.141 41.9938 155.959 47.5401 152.628 53.4826H149.645C147.607 53.4826 146.662 53.2845 146.662 52.8388C146.662 52.5417 148.352 49.4219 154.119 39.6167V19.8084L144.922 20.056L144.673 39.6167H139.205Z" fill="white"/>
<path d="M35.7955 15.6981C36.7401 15.1039 38.5298 14.3611 39.7727 14.0144C41.0156 13.7173 43.0043 13.5687 44.2472 13.6678C45.4901 13.8163 47.6278 14.4601 48.9702 15.1039C50.3622 15.7477 52.0526 16.9857 52.7983 17.9266C53.4943 18.818 54.5384 20.5512 55.1349 21.7892C55.7315 23.1263 56.179 25.0576 56.179 29.2174H45.9872C38.1321 29.2174 35.7955 29.3659 35.7955 29.8116C35.7955 30.1582 36.6406 31.2477 37.6847 32.2381C38.8281 33.3276 40.2699 34.1199 41.5128 34.3675C43.0043 34.6647 44.0483 34.5161 45.7386 33.8228C46.9815 33.2781 48.3239 32.4857 48.7216 31.9905C49.2685 31.3963 50.2131 31.1487 52.3509 31.1982C54.2401 31.1982 55.1847 31.3963 55.1847 31.7924C55.1847 32.1391 54.5384 33.3771 53.6932 34.5161C52.8977 35.7046 51.3565 37.1902 50.3622 37.834C49.3182 38.4778 47.5781 39.2701 46.4844 39.6167C45.3409 39.9634 43.3026 40.1615 41.7614 40.0129C40.2699 39.8643 38.1321 39.3196 37.0384 38.7749C35.9446 38.2302 34.1548 36.7941 33.0611 35.556C31.9673 34.318 30.7741 32.4857 30.4759 31.3963C30.1278 30.3563 29.8295 28.1774 29.8295 26.5927C29.8295 25.0576 30.1278 23.0272 30.4759 22.1359C30.8239 21.294 31.7685 19.7093 32.6136 18.6199C33.4091 17.5799 34.8509 16.2429 35.7955 15.6981Z" fill="white"/>
<path d="M74.6733 15.9457C75.8168 15.2029 77.8054 14.3611 79.0483 14.0144C80.2912 13.6678 82.2798 13.5687 83.5227 13.7173C84.7656 13.8659 86.6548 14.3611 87.7486 14.8563C88.8423 15.3515 90.4829 16.4905 91.4276 17.3818C92.3224 18.3227 93.5156 19.9569 94.0625 21.0464C94.6591 22.1359 95.206 24.2653 95.3551 25.7509C95.5043 27.6327 95.3054 29.3164 94.7088 31.1982C94.0625 33.08 93.0682 34.6151 91.527 36.1503C90.0024 37.6689 88.3286 38.7254 86.5057 39.3196C84.6165 39.9634 82.9261 40.1615 81.0369 40.0129C79.5455 39.8643 77.4077 39.3196 76.3139 38.7749C75.2202 38.1806 73.4801 36.8436 72.4858 35.7046C71.4418 34.6151 70.3977 33.2285 70.0994 32.6838C69.8011 32.1391 69.4034 30.5544 69.1051 29.2174C68.7737 27.5667 68.7737 25.949 69.1051 24.3643C69.4034 23.0768 70.2983 20.9969 71.0938 19.6598C71.9389 18.3723 73.5298 16.7381 74.6733 15.9457Z" fill="white"/>
<path d="M105.05 15.302C106.044 14.8068 107.734 14.163 108.778 13.9154C109.773 13.6678 111.413 13.5687 112.358 13.6678C113.303 13.8163 114.993 14.2125 116.037 14.5096C117.131 14.8563 118.92 15.8962 120.014 16.8866C121.158 17.8275 122.55 19.6103 123.146 20.8483C123.793 22.0368 124.29 23.4234 124.29 23.8691C124.29 24.6119 123.842 24.7605 121.555 24.7605C118.97 24.7605 118.771 24.6614 117.827 23.0272C117.28 22.0863 116.087 20.8483 115.241 20.3036C114.247 19.7093 112.706 19.3132 111.364 19.3132C110.021 19.3132 108.48 19.7093 107.536 20.3036C106.641 20.8483 105.447 22.0368 104.901 22.8787C104.254 23.9681 103.906 25.3547 103.906 26.9889C103.956 28.5241 104.304 30.0592 104.851 30.9506C105.348 31.7429 106.839 32.9809 108.182 33.6247C110.071 34.5161 111.016 34.7142 112.358 34.417C113.303 34.219 114.695 33.7733 115.49 33.3771C116.236 32.9809 117.28 31.8915 117.827 30.9506C118.771 29.3164 118.97 29.2174 121.555 29.2174C123.842 29.2174 124.29 29.3659 124.29 30.0592C124.29 30.5544 123.594 32.1391 122.798 33.5257C121.903 35.1103 120.462 36.7445 119.219 37.5864C118.026 38.3292 116.186 39.2701 115.092 39.6167C113.999 39.9634 111.861 40.1615 110.369 40.0129C108.878 39.9139 106.839 39.4187 105.895 38.973C104.95 38.5273 103.26 37.3388 102.216 36.2988C101.122 35.2589 99.7798 33.4266 99.233 32.1886C98.5369 30.6535 98.2386 28.9202 98.2386 26.7413C98.2386 24.3643 98.5369 22.9282 99.3821 21.294C99.9787 20.056 101.122 18.4218 101.818 17.679C102.564 16.8866 104.006 15.8467 105.05 15.302Z" fill="white"/>
<path d="M127.67 27.088C127.621 20.155 127.82 14.3611 128.018 14.163C128.267 13.9649 129.609 13.8659 133.487 14.1135V39.3691L127.77 39.6167L127.67 27.088Z" fill="white"/>
<path d="M36.839 22.4823C37.4355 21.69 38.579 20.6005 39.4242 20.1548C40.3191 19.7092 41.8603 19.313 42.8546 19.313C43.8986 19.313 45.589 19.7587 46.5833 20.2539C47.6273 20.7986 48.8702 21.8881 49.3177 22.7299C49.8148 23.5718 50.2125 24.3641 50.2125 24.5127C50.2125 24.6612 46.981 24.7603 43.0037 24.7603C39.0265 24.7603 35.7949 24.6117 35.7949 24.4136C35.7949 24.166 36.2424 23.3242 36.839 22.4823Z" fill="#0066FF"/>
<path d="M75.5676 22.928C76.1145 22.0366 77.3077 20.8481 78.1529 20.3034C79.1472 19.7092 80.6884 19.313 82.0307 19.313C83.5719 19.313 84.8148 19.6596 85.9583 20.4024C86.9029 21.0462 88.0961 22.0862 88.5932 22.7795C89.0904 23.4727 89.6373 24.9089 89.7864 25.9983C89.9853 27.4839 89.7367 28.5734 88.8915 30.2076C88.0463 31.8418 87.1515 32.7332 85.5108 33.575C83.6713 34.5159 82.8759 34.6645 81.0364 34.3673C79.7438 34.1693 78.2026 33.4264 77.3574 32.7332C76.562 32.0399 75.6174 30.8514 75.2694 30.1085C74.8716 29.3162 74.5733 27.7811 74.5733 26.6421C74.5733 25.4041 74.9711 23.8689 75.5676 22.928Z" fill="#0066FF"/>
</svg>
