<svg width="43" height="43" viewBox="0 0 43 43" fill="none" xmlns="http://www.w3.org/2000/svg">
<g clip-path="url(#clip0_578_7314)">
<path d="M28.8267 23.5413L28.2811 22.7032L28.2672 22.7123L28.2535 22.7219L28.8267 23.5413ZM28.8267 20.6743L28.2337 21.4795L28.2783 21.5124L28.3263 21.5401L28.8267 20.6743ZM17.3362 12.2133L17.9292 11.408L17.901 11.3872L17.8714 11.3685L17.3362 12.2133ZM14.9273 13.477L15.9273 13.4741V13.4654L15.9271 13.4566L14.9273 13.477ZM14.9755 30.0973L13.9755 30.1001L13.9756 30.1284L13.9773 30.1567L14.9755 30.0973ZM17.4727 31.4823L17.957 32.3572L18.0029 32.3318L18.0459 32.3017L17.4727 31.4823ZM21.3281 40.855C10.8347 40.855 2.32812 32.3484 2.32812 21.855H0.328125C0.328125 33.453 9.73015 42.855 21.3281 42.855V40.855ZM40.3281 21.855C40.3281 32.3484 31.8215 40.855 21.3281 40.855V42.855C32.9261 42.855 42.3281 33.453 42.3281 21.855H40.3281ZM21.3281 2.85498C31.8215 2.85498 40.3281 11.3616 40.3281 21.855H42.3281C42.3281 10.257 32.9261 0.85498 21.3281 0.85498V2.85498ZM21.3281 0.85498C9.73015 0.85498 0.328125 10.257 0.328125 21.855H2.32812C2.32812 11.3616 10.8347 2.85498 21.3281 2.85498V0.85498ZM29.3722 24.3794C30.1887 23.8479 30.9281 23.0808 30.9267 22.065C30.9253 21.0268 30.1571 20.2881 29.327 19.8085L28.3263 21.5401C28.9603 21.9065 28.9268 22.1231 28.9267 22.0677C28.9267 22.0348 28.9341 22.2782 28.2811 22.7032L29.3722 24.3794ZM29.4196 19.869L17.9292 11.408L16.7433 13.0185L28.2337 21.4795L29.4196 19.869ZM17.8714 11.3685C17.0911 10.8742 16.1129 10.6631 15.25 11.066C14.3319 11.4947 13.906 12.4413 13.9275 13.4974L15.9271 13.4566C15.9218 13.1935 15.9714 13.0445 16.0089 12.9728C16.0426 12.9085 16.0739 12.8886 16.0962 12.8782C16.148 12.854 16.3903 12.7978 16.8011 13.058L17.8714 11.3685ZM13.9273 13.4799L13.9755 30.1001L15.9755 30.0944L15.9273 13.4741L13.9273 13.4799ZM13.9773 30.1567C14.0355 31.1352 14.3605 32.1302 15.2562 32.6085C16.1416 33.0814 17.1403 32.8092 17.957 32.3572L16.9885 30.6073C16.7039 30.7648 16.4944 30.8297 16.3577 30.8487C16.2919 30.8578 16.2501 30.8553 16.2275 30.852C16.2064 30.8489 16.199 30.8447 16.1984 30.8444C16.1979 30.8441 16.1915 30.841 16.1788 30.8269C16.1652 30.8117 16.1411 30.7798 16.1133 30.7207C16.0554 30.5972 15.9942 30.3812 15.9737 30.0378L13.9773 30.1567ZM18.0459 32.3017L29.3998 24.3608L28.2535 22.7219L16.8996 30.6628L18.0459 32.3017Z" fill="white"/>
</g>
<defs>
<clipPath id="clip0_578_7314">
<rect width="42" height="42" fill="white" transform="translate(0.328125 0.85498)"/>
</clipPath>
</defs>
</svg>
