<svg width="43" height="43" viewBox="0 0 43 43" fill="none" xmlns="http://www.w3.org/2000/svg">
<g clip-path="url(#clip0_578_7293)">
<path d="M28.8267 23.1912L28.2811 22.3531L28.2672 22.3622L28.2535 22.3718L28.8267 23.1912ZM28.8267 20.3242L28.2337 21.1294L28.2783 21.1623L28.3263 21.19L28.8267 20.3242ZM17.3362 11.8632L17.9292 11.0579L17.901 11.0371L17.8714 11.0184L17.3362 11.8632ZM14.9273 13.1269L15.9273 13.124V13.1153L15.9271 13.1065L14.9273 13.1269ZM14.9755 29.7472L13.9755 29.75L13.9756 29.7783L13.9773 29.8066L14.9755 29.7472ZM17.4727 31.1322L17.957 32.0071L18.0029 31.9817L18.0459 31.9516L17.4727 31.1322ZM21.3281 40.5049C10.8347 40.5049 2.32812 31.9983 2.32812 21.5049H0.328125C0.328125 33.1029 9.73015 42.5049 21.3281 42.5049V40.5049ZM40.3281 21.5049C40.3281 31.9983 31.8215 40.5049 21.3281 40.5049V42.5049C32.9261 42.5049 42.3281 33.1029 42.3281 21.5049H40.3281ZM21.3281 2.50488C31.8215 2.50488 40.3281 11.0115 40.3281 21.5049H42.3281C42.3281 9.9069 32.9261 0.504883 21.3281 0.504883V2.50488ZM21.3281 0.504883C9.73015 0.504883 0.328125 9.9069 0.328125 21.5049H2.32812C2.32812 11.0115 10.8347 2.50488 21.3281 2.50488V0.504883ZM29.3722 24.0293C30.1887 23.4978 30.9281 22.7307 30.9267 21.7149C30.9253 20.6767 30.1571 19.938 29.327 19.4584L28.3263 21.19C28.9603 21.5564 28.9268 21.773 28.9267 21.7176C28.9267 21.6847 28.9341 21.9281 28.2811 22.3531L29.3722 24.0293ZM29.4196 19.5189L17.9292 11.0579L16.7433 12.6684L28.2337 21.1294L29.4196 19.5189ZM17.8714 11.0184C17.0911 10.5241 16.1129 10.313 15.25 10.7159C14.3319 11.1446 13.906 12.0912 13.9275 13.1473L15.9271 13.1065C15.9218 12.8434 15.9714 12.6944 16.0089 12.6227C16.0426 12.5584 16.0739 12.5385 16.0962 12.5281C16.148 12.5039 16.3903 12.4477 16.8011 12.7079L17.8714 11.0184ZM13.9273 13.1298L13.9755 29.75L15.9755 29.7443L15.9273 13.124L13.9273 13.1298ZM13.9773 29.8066C14.0355 30.7851 14.3605 31.7801 15.2562 32.2584C16.1416 32.7313 17.1403 32.4591 17.957 32.0071L16.9885 30.2572C16.7039 30.4147 16.4944 30.4796 16.3577 30.4986C16.2919 30.5077 16.2501 30.5052 16.2275 30.5019C16.2064 30.4988 16.199 30.4946 16.1984 30.4943C16.1979 30.494 16.1915 30.4909 16.1788 30.4768C16.1652 30.4616 16.1411 30.4297 16.1133 30.3706C16.0554 30.2471 15.9942 30.0311 15.9737 29.6877L13.9773 29.8066ZM18.0459 31.9516L29.3998 24.0107L28.2535 22.3718L16.8996 30.3127L18.0459 31.9516Z" fill="white"/>
</g>
<defs>
<clipPath id="clip0_578_7293">
<rect width="42" height="42" fill="white" transform="translate(0.328125 0.504883)"/>
</clipPath>
</defs>
</svg>
